<svg xmlns="http://www.w3.org/2000/svg" viewBox="0 0 40 40"><defs><style>.cls-1{fill:#2fbf71;}</style></defs><title>Ресурс 1</title><g id="Слой_2" data-name="Слой 2"><g id="Слой_1-2" data-name="Слой 1"><path class="cls-1" d="M17.05,29.1,31.2,15,28.9,12.7,17.05,24.55l-6-6L8.8,20.8ZM20,40a19.19,19.19,0,0,1-7.75-1.58,20.14,20.14,0,0,1-6.37-4.29,20.53,20.53,0,0,1-4.31-6.38,20,20,0,0,1,0-15.55A20.16,20.16,0,0,1,5.88,5.85a20.43,20.43,0,0,1,6.37-4.27A19.36,19.36,0,0,1,20,0a19.62,19.62,0,0,1,7.8,1.57,20.42,20.42,0,0,1,6.35,4.28,20.05,20.05,0,0,1,4.27,6.35A19.29,19.29,0,0,1,40,20a19.19,19.19,0,0,1-1.58,7.75,20.42,20.42,0,0,1-4.27,6.38,19.94,19.94,0,0,1-6.35,4.29A19.29,19.29,0,0,1,20,40Z"/></g></g></svg>